#!OML:ASF F:\VICON\USERDATA\INSTALL\rory3\rory3.ASF
:FULLY-SPECIFIED
:DEGREES
174
root -2.4134 17.0606 6.6789 4.87826 38.8253 6.96287
lowerback 7.42523 -1.29097 -5.40025
upperback -0.0538887 -2.14962 0.799889
thorax -3.9951 -0.950008 4.097
lowerneck -17.3255 -3.46119 -10.0717
upperneck 22.5367 -3.07513 4.63639
head 10.3165 -1.70892 2.90636
rclavicle 2.08227e-014 -9.54166e-015
rhumerus -36.4039 -12.4747 -76.8783
rradius 28.1236
rwrist 4.18339
rhand -14.7893 12.9767
rfingers 7.12502
rthumb 11.3679 -16.6951
lclavicle 2.08227e-014 -9.54166e-015
lhumerus -33.2577 11.6516 83.9779
lradius 28.7712
lwrist -11.5982
lhand -16.4305 22.5809
lfingers 7.12502
lthumb 9.78486 52.3336
rfemur -29.6715 -3.20236 12.6471
rtibia 68.576
rfoot -11.1056 -3.30799
rtoes -3.27001
lfemur -13.2197 1.91643 -34.0302
ltibia 34.6096
lfoot -18.0928 -2.00381
ltoes 11.8026
175
root -2.28754 17.043 6.88718 5.01029 39.0791 7.1469
lowerback 7.27507 -1.381 -5.63732
upperback 0.0534949 -2.2752 0.859396
thorax -3.77357 -1.0169 4.29692
lowerneck -17.3037 -3.40443 -9.92824
upperneck 22.3894 -2.98997 4.45069
head 10.2467 -1.67729 2.82557
rclavicle -2.73329e-015 3.97569e-015
rhumerus -36.5143 -12.2804 -77.0477
rradius 27.9651
rwrist 4.61248
rhand -14.3898 12.5387
rfingers 7.12502
rthumb 11.7532 -17.1116
lclavicle -2.73329e-015 3.97569e-015
lhumerus -32.8895 10.28 84.5596
lradius 30.396
lwrist -9.59354
lhand -16.5518 22.8324
lfingers 7.12502
lthumb 9.66782 52.5905
rfemur -30.854 -2.93366 12.6056
rtibia 66.7769
rfoot -11.5542 -3.3771
rtoes -4.20095
lfemur -12.2188 1.66216 -34.098
ltibia 34.4497
lfoot -18.6571 -1.45648
ltoes 9.51051
176
root -2.16157 17.033 7.0935 5.29571 39.3431 7.56302
lowerback 7.26984 -1.45884 -6.05536
upperback 0.05349 -2.4126 0.885714
thorax -3.73733 -1.0785 4.57296
lowerneck -17.1249 -3.37794 -9.96956
upperneck 22.337 -2.9602 4.45544
head 10.1925 -1.66715 2.83866
rclavicle -5.54609e-014 -9.54166e-015
rhumerus -36.7789 -12.0993 -77.1536
rradius 27.8225
rwrist 4.92897
rhand -13.9384 12.4217
rfingers 7.12502
rthumb 12.1885 -17.2032
lclavicle -5.54609e-014 -9.54166e-015
lhumerus -32.3975 10.2147 84.6241
lradius 31.2501
lwrist -8.80381
lhand -16.4146 22.6413
lfingers 7.12502
lthumb 9.80017 52.3932
rfemur -31.9067 -2.76077 12.3632
rtibia 64.6994
rfoot -11.6595 -3.58663
rtoes -5.67335
lfemur -11.0097 1.32115 -34.3379
ltibia 33.9188
lfoot -18.9991 -1.10854
ltoes 8.23184
177
root -2.03448 17.0234 7.26736 5.96852 39.3476 8.1077
lowerback 7.41059 -1.47062 -6.19055
upperback -0.177124 -2.46327 0.732597
thorax -4.05306 -1.08544 4.50525
lowerneck -16.9797 -3.36863 -9.94762
upperneck 22.3215 -2.98197 4.5083
head 10.1612 -1.67007 2.85161
rclavicle 3.48867e-014 2.14687e-014
rhumerus -37.2652 -12.0911 -77.2869
rradius 27.7809
rwrist 5.34059
rhand -13.4911 12.8075
rfingers 7.12502
rthumb 12.6197 -16.7913
lclavicle 3.48867e-014 2.14687e-014
lhumerus -31.9466 9.90084 84.6612
lradius 32.0733
lwrist -7.73976
lhand -16.6211 22.7184
lfingers 7.12502
lthumb 9.60091 52.4797
rfemur -33.3238 -2.56281 11.939
rtibia 62.3149
rfoot -11.2289 -3.80149
rtoes -6.0858
lfemur -10.143 1.01933 -34.7998
ltibia 33.2356
lfoot -19.3864 -0.97829
ltoes 12.1611
178
root -1.87425 17.0163 7.46768 6.95057 39.8397 9.53669
lowerback 7.15437 -1.64878 -6.83104
upperback -0.124751 -2.74824 0.379003
thorax -3.80823 -1.22724 4.50958
lowerneck -17.1593 -3.34934 -9.92701
upperneck 22.4077 -2.94586 4.52135
head 10.2229 -1.6498 2.85831
rclavicle -2.0773e-014 1.66979e-014
rhumerus -37.5975 -11.9412 -77.5525
rradius 27.7893
rwrist 5.80722
rhand -13.4915 12.697
rfingers 7.12502
rthumb 12.6194 -16.9018
lclavicle -2.0773e-014 1.66979e-014
lhumerus -31.5305 8.92233 84.9087
lradius 33.3412
lwrist -6.01699
lhand -16.5288 23.219
lfingers 7.12502
lthumb 9.69001 52.9761
rfemur -33.9852 -3.26611 10.7087
rtibia 59.8482
rfoot -12.0913 -3.99384
rtoes -3.60633
lfemur -8.56689 1.01525 -35.9719
ltibia 32.1633
lfoot -19.813 -1.18675
ltoes 15.3113
179
root -1.74793 17.0289 7.69125 6.72466 39.86 9.00018
lowerback 6.88533 -1.67231 -6.70929
upperback -0.104126 -2.74201 0.56177
thorax -3.63246 -1.23285 4.61937
lowerneck -17.2976 -3.23634 -9.97326
upperneck 22.4747 -2.765 4.54251
head 10.2594 -1.56783 2.89969
rclavicle 2.60408e-014 -7.95139e-016
rhumerus -37.8339 -11.7544 -77.8445
rradius 27.6976
rwrist 6.17216
rhand -13.6 12.9429
rfingers 7.12502
rthumb 12.5147 -16.6624
lclavicle 2.60408e-014 -7.95139e-016
lhumerus -31.2101 8.30602 84.9692
lradius 34.648
lwrist -4.43556
lhand -16.2593 23.4873
lfingers 7.12502
lthumb 9.95004 53.2321
rfemur -34.7178 -2.60776 11.4028
rtibia 57.106
rfoot -12.0594 -5.21438
rtoes -1.52867
lfemur -7.26367 1.21979 -35.4466
ltibia 31.0902
lfoot -19.7862 -0.368063
ltoes 10.9068
180
root -1.59405 17.0126 7.8424 8.10155 40.3004 10.5261
lowerback 7.07059 -1.87765 -6.99727
upperback -0.397161 -3.08127 0.145891
thorax -4.00912 -1.3763 4.39264
lowerneck -17.2102 -3.15377 -10.0124
upperneck 22.443 -2.66473 4.61317
head 10.2243 -1.51691 2.94581
rclavicle 3.97569e-016 3.97569e-015
rhumerus -38.1784 -11.7018 -77.9523
rradius 27.5561
rwrist 6.54018
rhand -13.4491 13.0684
rfingers 7.12502
rthumb 12.6603 -16.5278
lclavicle 3.97569e-016 3.97569e-015
lhumerus -30.9342 7.82284 85.0536
lradius 35.7853
lwrist -3.16518
lhand -16.7195 24.9435
lfingers 7.12502
lthumb 9.50599 54.7091
rfemur -35.7315 -3.95337 10.2057
rtibia 54.3926
rfoot -11.7019 -5.22604
rtoes -3.096
lfemur -5.96376 1.32356 -36.7694
ltibia 29.7524
lfoot -19.8248 0.181741
ltoes 6.23811
181
root -1.4557 16.9918 8.05567 8.66097 40.4075 11.2378
lowerback 6.86509 -1.92101 -7.57971
upperback -0.352517 -3.16844 0.120491
thorax -3.80752 -1.41697 4.68854
lowerneck -17.3564 -3.21564 -10.0002
upperneck 22.5475 -2.75368 4.66287
head 10.2974 -1.55127 2.95023
rclavicle 4.05024e-014 -3.97569e-015
rhumerus -38.2608 -11.5862 -77.9671
rradius 27.3534
rwrist 7.07766
rhand -12.9985 13.1677
rfingers 7.12502
rthumb 13.0947 -16.4012
lclavicle 4.05024e-014 -3.97569e-015
lhumerus -30.3749 7.48288 85.2319
lradius 36.6997
lwrist -2.36727
lhand -17.0573 25.1137
lfingers 7.12502
lthumb 9.18003 54.8939
rfemur -36.2193 -4.52282 9.88878
rtibia 51.3005
rfoot -11.0808 -5.51203
rtoes -7.16642
lfemur -4.34453 1.95105 -37.2021
ltibia 28.3808
lfoot -19.9429 0.0323463
ltoes 7.03241
182
root -1.33765 17.0065 8.34638 8.5983 40.2887 11.2528
lowerback 6.17783 -1.82637 -8.63843
upperback -0.0890529 -3.03852 0.349179
thorax -3.0975 -1.37176 5.4707
lowerneck -17.6571 -3.37872 -10.1644
upperneck 22.4507 -2.90025 4.65245
head 10.3355 -1.63034 2.94955
rclavicle -5.93372e-014 8.74653e-015
rhumerus -38.3758 -11.5988 -78.1402
rradius 27.2405
rwrist 7.49034
rhand -13.0631 13.2785
rfingers 7.12502
rthumb 13.0324 -16.2944
lclavicle -5.93372e-014 8.74653e-015
lhumerus -29.8371 7.04157 85.2725
lradius 37.6871
lwrist -1.67001
lhand -16.0771 24.309
lfingers 7.12502
lthumb 10.1257 54.0454
rfemur -36.2558 -3.53115 10.181
rtibia 47.7828
rfoot -10.059 -6.97575
rtoes -6.20957
lfemur -2.4479 2.20703 -36.8499
ltibia 26.9381
lfoot -19.8058 -0.362248
ltoes 11.7474
